<?xml version="1.0" encoding="iso-8859-1"?>
<!-- Generator: Adobe Illustrator 19.0.0, SVG Export Plug-In . SVG Version: 6.00 Build 0)  -->
<svg version="1.1" id="Layer_1" xmlns="http://www.w3.org/2000/svg" xmlns:xlink="http://www.w3.org/1999/xlink" x="0px" y="0px"
	 viewBox="0 0 512 512" style="enable-background:new 0 0 512 512;" xml:space="preserve">
<path style="fill:#0E7886;" d="M256.001,512C397,512,512,397,512,256.001C512,115,397,0,256.001,0C115,0,0,115,0,256.001
	C0,397,115,512,256.001,512z"/>
<path style="fill:#FFFFFF;" d="M206.736,138.326c-20.268-14.343-85.019-56.99-105.617-36.397
	c-14.523,14.523,0.999,55.584,36.397,105.617c-60.405,10.348-100.419,28.399-100.419,48.937c0,28.323,75.581,44.683,100.419,48.94
	c-35.397,50.036-50.92,91.094-36.397,105.62c14.526,14.523,55.584-1.002,105.617-36.397c10.35,60.402,28.399,100.416,48.942,100.416
	c28.543,0,44.654-75.359,48.94-100.416c50.036,35.395,91.094,50.92,105.617,36.397c14.526-14.526-0.999-55.584-36.397-105.62
	c60.408-10.348,100.419-28.397,100.419-48.94c0-20.541-40.011-38.589-100.419-48.937c21.794-30.81,36.053-58.209,40.405-78.113
	c6.266-36.551-27.623-32.336-37.433-29.991c-19.261,5.632-44.334,19.174-72.193,38.883c-10.348-60.405-28.399-100.419-48.94-100.419
	C235.135,37.907,217.087,77.921,206.736,138.326z M62.052,256.487L62.052,256.487c0-16.682,32.229-31.437,81.625-40.412
	c9.624,13.047,20.507,26.618,32.483,40.412c-11.977,13.8-22.859,27.368-32.483,40.415
	C123.113,293.159,62.052,278.352,62.052,256.487z M255.676,450.111L255.676,450.111c-16.685,0-31.442-32.231-40.415-81.625
	c13.047-9.624,26.618-20.507,40.415-32.486c13.797,11.979,27.368,22.859,40.415,32.486
	C292.364,389.013,277.444,450.111,255.676,450.111z M396.937,135.137L396.937,135.137v0.01l-0.066,0.763l-0.003,0.024l-0.073,0.769
	l-0.005,0.034l-0.092,0.769l-0.008,0.047l-0.102,0.766l-0.01,0.063l-0.118,0.766l-0.01,0.073l-0.131,0.763l-0.016,0.092
	l-0.142,0.761l-0.018,0.102l-0.155,0.758l-0.024,0.118l-0.165,0.755l-0.031,0.136l-0.173,0.753l-0.034,0.147l-0.186,0.748
	l-0.042,0.17l-0.194,0.742l-0.05,0.184l-0.199,0.734l-0.058,0.202l-0.21,0.732l-0.063,0.218l-0.031,0.1l-0.26,0.863l-0.22,0.721
	l-0.081,0.254l-0.231,0.713l-0.089,0.27l-0.239,0.706l-0.097,0.289l-0.241,0.698l-0.108,0.31l-0.247,0.687l-0.118,0.325
	l-0.252,0.685l-0.129,0.349l-0.396,1.036l0,0l-0.257,0.664l-0.152,0.386l-0.262,0.653l-0.163,0.407l-0.265,0.645l-0.176,0.428
	l-0.265,0.632l-0.189,0.449l-0.268,0.622l-0.205,0.47l-0.265,0.611l-0.215,0.49l-0.27,0.598l-0.233,0.514l-0.268,0.585l-0.244,0.535
	l-0.268,0.574l-0.262,0.556l-0.265,0.561l-0.278,0.58l-0.265,0.548l-0.291,0.601l-0.265,0.54l-0.307,0.622l-0.029,0.055
	l-0.559,1.115l-0.257,0.511l-0.338,0.669l-0.257,0.493l-0.357,0.695l-0.252,0.48l-0.375,0.716l-0.247,0.464l-0.396,0.742
	l-0.241,0.449l-0.414,0.766l-0.569,1.039l-0.1,0.186l-0.231,0.414l-0.454,0.818l-0.226,0.399l-0.47,0.842l-0.218,0.383l-0.491,0.863
	l-0.212,0.367l-0.511,0.889l-0.202,0.351l-0.532,0.915l-0.199,0.333l-0.553,0.942l-0.189,0.315l-0.574,0.965l-0.178,0.299
	l-0.595,0.989l-0.171,0.278l-0.619,1.02l-0.163,0.262l-0.643,1.041l-0.15,0.244l-0.669,1.07l-0.139,0.22l-0.69,1.096l-0.129,0.205
	l-0.711,1.123l-0.121,0.184l-0.734,1.149l-0.108,0.163l-0.761,1.175l-0.094,0.144l-0.787,1.204l-0.081,0.126l-0.813,1.228
	l-0.071,0.105l-0.837,1.254l-0.058,0.087l-0.863,1.283l-0.042,0.063l-0.887,1.311l-0.029,0.042l-0.915,1.34l-0.016,0.021
	l-0.942,1.364c-16.029-2.424-33.317-4.323-51.547-5.613c-1.291-18.23-3.192-35.521-5.613-51.55
	c28.118-19.47,52.499-31.408,68.916-33.312c23.951,0.346,23.951,7.683,21.731,19.735L396.937,135.137z M205.065,148.713
	L205.065,148.713c-2.424,16.029-4.328,33.32-5.616,51.55c-18.227,1.291-35.518,3.19-51.544,5.613
	c-28.58-41.278-40.937-74.503-29.139-86.302c16.373-16.373,70.278,18.049,86.302,29.139H205.065z M255.676,198.314L255.676,198.314
	c-3.664,0-7.308,0.024-10.925,0.073c3.656-3.347,7.3-6.607,10.925-9.789l0.003-0.003c3.622,3.179,7.268,6.447,10.922,9.792
	C262.984,198.34,259.34,198.314,255.676,198.314z M296.81,215.353L296.81,215.353c-2.589-2.594-5.186-5.152-7.777-7.675
	c4.95,0.22,9.834,0.488,14.649,0.803c0.315,4.813,0.582,9.7,0.803,14.649C301.959,220.536,299.404,217.942,296.81,215.353z
	 M206.867,289.841L206.867,289.841c2.526,2.594,5.083,5.188,7.675,7.78c2.592,2.592,5.186,5.149,7.777,7.675
	c-4.95-0.22-9.834-0.488-14.649-0.803c-0.315-4.816-0.58-9.7-0.8-14.649L206.867,289.841z M187.785,256.487L187.785,256.487
	c3.179-3.625,6.447-7.268,9.792-10.925c-0.047,3.617-0.071,7.26-0.071,10.925c0,3.664,0.024,7.308,0.071,10.927
	c-3.344-3.656-6.61-7.3-9.792-10.925V256.487z M244.751,314.583L244.751,314.583c3.62,0.047,7.263,0.071,10.925,0.071
	c3.664,0,7.308-0.024,10.925-0.071l-0.171,0.157l-0.173,0.157l-0.171,0.155l-0.17,0.157l-0.171,0.157l-0.171,0.157l-0.173,0.157
	l-0.17,0.155l-0.173,0.157l-0.171,0.152v0.003l-0.173,0.152l-0.17,0.157l-0.173,0.155l-0.171,0.157l-0.173,0.152l-0.17,0.157
	l-0.171,0.155h-0.003l-0.171,0.152v0.003l-0.171,0.152l-0.173,0.155l-0.171,0.152l-0.171,0.155h-0.003l-0.171,0.155l-0.17,0.152
	l-0.171,0.155l0,0l-0.171,0.152l-0.171,0.155l-0.17,0.155l0,0l-0.171,0.152l0,0l-0.171,0.152l-0.171,0.152l0,0l-0.168,0.152
	l-0.003,0.003l-0.171,0.152l-0.171,0.152v0.003l-0.171,0.152h-0.003l-0.165,0.152l-0.003,0.003l-0.168,0.15v0.003l-0.171,0.15
	l-0.171,0.152h-0.003l-0.165,0.152h-0.003l-0.168,0.15v0.003l-0.171,0.15v0.003l-0.171,0.15v0.003l-0.171,0.15l0,0l-0.17,0.15v0.003
	l-0.168,0.15l-0.003,0.003l-0.165,0.15h-0.003l-0.165,0.15l-0.003,0.003l-0.168,0.15h-0.003l-0.168,0.15l-0.171,0.15l-0.003,0.003
	l-0.168,0.147l-0.003,0.003l-0.168,0.147v0.003l-0.168,0.15l0,0l-0.168,0.15h-0.003l-0.168,0.147l-0.003,0.003l-0.165,0.15h-0.003
	l-0.165,0.15h-0.003l-0.168,0.147h-0.003l-0.168,0.15l0,0l-0.168,0.15l0,0l-0.171,0.15l0,0l-0.168,0.147l-0.003,0.003l-0.165,0.147
	l-0.003,0.003c-3.622-3.182-7.266-6.447-10.922-9.794L244.751,314.583z M323.567,256.484L323.567,256.484
	c-3.182,3.628-6.445,7.271-9.792,10.927c0.047-3.62,0.071-7.263,0.071-10.927c0-3.664-0.024-7.305-0.071-10.925
	c3.344,3.654,6.61,7.297,9.792,10.922V256.484z M214.542,215.353L214.542,215.353c-2.589,2.589-5.149,5.183-7.675,7.777
	c0.22-4.95,0.485-9.836,0.8-14.649c4.816-0.315,9.7-0.582,14.649-0.803c-2.592,2.523-5.186,5.083-7.777,7.675H214.542z
	 M304.485,289.841L304.485,289.841c-0.22,4.952-0.488,9.836-0.803,14.649c-4.816,0.315-9.7,0.582-14.649,0.803
	c2.592-2.523,5.188-5.083,7.777-7.675c2.594-2.591,5.149-5.186,7.675-7.78V289.841z M249.014,182.825L249.014,182.825
	c-5.739,5.102-11.507,10.384-17.286,15.835c-7.942,0.233-15.762,0.577-23.426,1.028c1.254-15.966,3.016-31.054,5.222-44.966
	C224.921,163.003,236.838,172.425,249.014,182.825z M153.912,214.332L153.912,214.332c13.915-2.201,29.002-3.969,44.966-5.22
	c-0.451,7.664-0.795,15.481-1.026,23.426c-5.453,5.776-10.736,11.546-15.835,17.286
	C171.612,237.646,162.195,225.732,153.912,214.332z M182.017,263.152L182.017,263.152c5.099,5.739,10.384,11.507,15.835,17.286
	c0.231,7.942,0.577,15.762,1.026,23.426c-15.964-1.254-31.051-3.016-44.966-5.222C162.193,287.241,171.612,275.328,182.017,263.152z
	 M231.728,314.313L231.728,314.313c5.778,5.451,11.549,10.736,17.286,15.835c-12.176,10.403-24.092,19.822-35.489,28.105
	c-2.206-13.915-3.971-29.005-5.222-44.966C215.967,313.736,223.786,314.08,231.728,314.313z M262.341,330.148L262.341,330.148
	c5.736-5.099,11.507-10.382,17.286-15.835c7.942-0.233,15.762-0.577,23.426-1.026c-1.251,15.961-3.016,31.051-5.22,44.966
	C286.433,349.973,274.52,340.553,262.341,330.148z M357.44,298.641L357.44,298.641c-13.912,2.206-29,3.969-44.966,5.222
	c0.451-7.664,0.797-15.484,1.028-23.426c5.451-5.778,10.733-11.549,15.835-17.286C339.74,275.328,349.159,287.241,357.44,298.641z
	 M329.338,249.827L329.338,249.827c-5.099-5.742-10.384-11.51-15.835-17.286c-0.231-7.945-0.577-15.762-1.028-23.426
	c15.966,1.251,31.054,3.016,44.966,5.22C349.159,225.735,339.74,237.651,329.338,249.827z M279.624,198.663L279.624,198.663
	c-5.778-5.451-11.546-10.733-17.286-15.835c12.176-10.4,24.092-19.825,35.492-28.103c2.203,13.912,3.969,29,5.22,44.966
	C295.386,199.24,287.566,198.896,279.624,198.663z M290.709,221.457L290.709,221.457c4.876,4.876,9.624,9.755,14.238,14.626
	c0.178,6.707,0.27,13.511,0.27,20.404c0,6.893-0.092,13.7-0.27,20.407c-4.614,4.868-9.364,9.75-14.238,14.626
	c-4.876,4.874-9.758,9.624-14.626,14.24c-6.707,0.178-13.511,0.27-20.404,0.27s-13.7-0.094-20.407-0.27
	c-4.868-4.619-9.75-9.367-14.626-14.24c-4.874-4.874-9.621-9.758-14.238-14.626c-0.178-6.707-0.27-13.514-0.27-20.407
	c0-6.893,0.092-13.697,0.27-20.404c4.614-4.871,9.364-9.75,14.238-14.626s9.758-9.621,14.626-14.24
	c6.707-0.178,13.514-0.27,20.407-0.27s13.697,0.092,20.404,0.27C280.951,211.833,285.833,216.58,290.709,221.457z M205.065,364.26
	L205.065,364.26c-41.281,28.583-74.509,40.937-86.302,29.139c-11.798-11.796,0.559-45.024,29.139-86.302
	c16.029,2.424,33.317,4.325,51.544,5.616c1.291,18.225,3.192,35.518,5.616,51.544L205.065,364.26z M306.289,364.26L306.289,364.26
	c2.421-16.026,4.323-33.32,5.613-51.544c18.23-1.291,35.518-3.192,51.547-5.616c28.583,41.278,40.937,74.506,29.141,86.302
	c-11.798,11.798-45.024-0.559-86.302-29.139V364.26z M367.675,296.902L367.675,296.902c-9.621-13.044-20.509-26.615-32.486-40.415
	c11.977-13.797,22.862-27.368,32.486-40.412c49.396,8.976,81.625,23.733,81.625,40.412
	C449.3,273.169,417.069,287.926,367.675,296.902z M255.676,176.973L255.676,176.973c-13.8-11.982-27.368-22.862-40.415-32.486
	c8.976-49.394,23.733-81.625,40.415-81.625s31.439,32.231,40.415,81.625C283.044,154.109,269.473,164.997,255.676,176.973z"/>
<path style="fill:#EC4B53;" d="M151.31,94.315c9.886,0,17.905,8.016,17.905,17.902s-8.018,17.902-17.905,17.902
	c-9.886,0-17.905-8.013-17.905-17.902C133.405,102.331,141.424,94.315,151.31,94.315z"/>
<path style="fill:#FF5B61;" d="M149.954,94.315c9.139,0,16.548,7.407,16.548,16.548c0,9.139-7.41,16.546-16.548,16.546
	s-16.548-7.407-16.548-16.546C133.405,101.722,140.815,94.315,149.954,94.315z"/>
<path style="fill:#15BDB1;" d="M405.438,109.83c9.886,0,17.905,8.016,17.905,17.905s-8.016,17.902-17.905,17.902
	c-9.886,0-17.905-8.013-17.905-17.902C387.534,117.848,395.552,109.83,405.438,109.83z"/>
<path style="fill:#20D0C2;" d="M404.08,109.83c9.138,0,16.548,7.407,16.548,16.548c0,9.138-7.41,16.546-16.548,16.546
	c-9.136,0-16.548-7.407-16.548-16.546C387.531,117.237,394.941,109.83,404.08,109.83z"/>
<path style="fill:#15BDB1;" d="M106.205,275.128c9.886,0,17.905,8.016,17.905,17.905c0,9.889-8.016,17.902-17.905,17.902
	c-9.886,0-17.905-8.013-17.905-17.902C88.3,283.147,96.319,275.128,106.205,275.128z"/>
<path style="fill:#20D0C2;" d="M104.846,275.128c9.139,0,16.548,7.407,16.548,16.548c0,9.139-7.41,16.548-16.548,16.548
	S88.3,300.818,88.3,291.677C88.3,282.535,95.708,275.128,104.846,275.128z"/>
<path style="fill:#EC4B53;" d="M291.637,392.977c9.886,0,17.907,8.013,17.907,17.902s-8.018,17.902-17.907,17.902
	c-9.886,0-17.902-8.013-17.902-17.902C273.735,400.992,281.751,392.977,291.637,392.977z"/>
<path style="fill:#FF5B61;" d="M290.281,392.977c9.138,0,16.548,7.407,16.548,16.548c0,9.139-7.407,16.546-16.548,16.546
	c-9.139,0-16.548-7.407-16.548-16.546C273.733,400.384,281.143,392.977,290.281,392.977z"/>
<path style="fill:#F5A209;" d="M255.676,229.026c15.169,0,27.463,12.294,27.463,27.46s-12.297,27.46-27.463,27.46
	c-15.164,0-27.46-12.291-27.46-27.46C228.216,241.32,240.513,229.026,255.676,229.026z"/>
<path style="fill:#FBB429;" d="M253.599,229.026c14.017,0,25.38,11.363,25.38,25.38c0,14.017-11.365,25.377-25.38,25.377
	c-14.015,0-25.38-11.363-25.38-25.377C228.219,240.389,239.584,229.026,253.599,229.026z"/>
<g>
</g>
<g>
</g>
<g>
</g>
<g>
</g>
<g>
</g>
<g>
</g>
<g>
</g>
<g>
</g>
<g>
</g>
<g>
</g>
<g>
</g>
<g>
</g>
<g>
</g>
<g>
</g>
<g>
</g>
</svg>
